# Export of Main
# from Aaro4130 OBJ Exporter v2.0
v -0.25 0 0
v -0.31 0.45 -4.470349E-10
v -0.1767767 0 0.1767767
v -0.2192031 0.45 0.2192031
v -0.1767767 0 0.1767767
v -0.2192031 0.45 0.2192031
v 1.092785E-08 0 0.25
v 1.220943E-08 0.45 0.31
v 1.092785E-08 0 0.25
v 1.220943E-08 0.45 0.31
v 0.1767767 0 0.1767767
v 0.2192031 0.45 0.2192031
v 0.1767767 0 0.1767767
v 0.2192031 0.45 0.2192031
v 0.25 0 -2.185569E-08
v 0.31 0.45 -2.75481E-08
v 0.25 0 -2.185569E-08
v 0.31 0.45 -2.75481E-08
v 0.1767767 0 -0.1767767
v 0.2192031 0.45 -0.2192031
v 0.1767767 0 -0.1767767
v 0.2192031 0.45 -0.2192031
v -2.98122E-09 0 -0.25
v -5.037818E-09 0.45 -0.31
v -2.98122E-09 0 -0.25
v -5.037818E-09 0.45 -0.31
v -0.1767767 0 -0.1767767
v -0.2192031 0.45 -0.2192031
v -0.1767767 0 -0.1767767
v -0.2192031 0.45 -0.2192031
v -0.25 0 0
v -0.31 0.45 -4.470349E-10
v -0.31 0.45 -4.470349E-10
v -0.25 0.9 0
v -0.2192031 0.45 0.2192031
v -0.1767767 0.9 0.1767767
v -0.2192031 0.45 0.2192031
v -0.1767767 0.9 0.1767767
v 1.220943E-08 0.45 0.31
v 1.092785E-08 0.9 0.25
v 1.220943E-08 0.45 0.31
v 1.092785E-08 0.9 0.25
v 0.2192031 0.45 0.2192031
v 0.1767767 0.9 0.1767767
v 0.2192031 0.45 0.2192031
v 0.1767767 0.9 0.1767767
v 0.31 0.45 -2.75481E-08
v 0.25 0.9 -2.185569E-08
v 0.31 0.45 -2.75481E-08
v 0.25 0.9 -2.185569E-08
v 0.2192031 0.45 -0.2192031
v 0.1767767 0.9 -0.1767767
v 0.2192031 0.45 -0.2192031
v 0.1767767 0.9 -0.1767767
v -5.037818E-09 0.45 -0.31
v -2.98122E-09 0.9 -0.25
v -5.037818E-09 0.45 -0.31
v -2.98122E-09 0.9 -0.25
v -0.2192031 0.45 -0.2192031
v -0.1767767 0.9 -0.1767767
v -0.2192031 0.45 -0.2192031
v -0.1767767 0.9 -0.1767767
v -0.31 0.45 -4.470349E-10
v -0.25 0.9 0
v -0.1767767 0 0.1767767
v 0 0 0
v -0.25 0 0
v 1.092785E-08 0 0.25
v 0.1767767 0 0.1767767
v 0.25 0 -2.185569E-08
v 0.1767767 0 -0.1767767
v -2.98122E-09 0 -0.25
v -0.1767767 0 -0.1767767
v -0.25 0.9 0
v 0 0.9 0
v -0.1767767 0.9 0.1767767
v 1.092785E-08 0.9 0.25
v 0.1767767 0.9 0.1767767
v 0.25 0.9 -2.185569E-08
v 0.1767767 0.9 -0.1767767
v -2.98122E-09 0.9 -0.25
v -0.1767767 0.9 -0.1767767
vn -0.5294005 -0.07058675 0.2192849
vn -0.5294006 -0.07058675 0.2192849
vn -0.5294006 -0.07058675 0.2192849
vn -0.5294005 -0.07058674 0.2192849
vn -0.2192849 -0.07058676 0.5294006
vn -0.2192849 -0.07058675 0.5294006
vn -0.2192849 -0.07058675 0.5294006
vn -0.2192849 -0.07058674 0.5294005
vn 0.2192849 -0.07058674 0.5294005
vn 0.2192849 -0.07058675 0.5294006
vn 0.2192849 -0.07058675 0.5294006
vn 0.2192849 -0.07058674 0.5294005
vn 0.5294006 -0.07058676 0.2192849
vn 0.5294006 -0.07058675 0.2192849
vn 0.5294006 -0.07058675 0.2192849
vn 0.5294005 -0.07058674 0.2192849
vn 0.5294006 -0.07058675 -0.2192849
vn 0.5294006 -0.07058675 -0.2192849
vn 0.5294006 -0.07058675 -0.2192849
vn 0.5294005 -0.07058674 -0.2192849
vn 0.2192849 -0.07058676 -0.5294005
vn 0.2192849 -0.07058675 -0.5294005
vn 0.2192849 -0.07058675 -0.5294005
vn 0.2192849 -0.07058675 -0.5294005
vn -0.2192849 -0.07058675 -0.5294006
vn -0.2192848 -0.07058675 -0.5294006
vn -0.2192848 -0.07058675 -0.5294006
vn -0.2192848 -0.07058675 -0.5294005
vn -0.5294005 -0.07058676 -0.219285
vn -0.5294005 -0.07058675 -0.2192849
vn -0.5294005 -0.07058675 -0.2192849
vn -0.5294005 -0.07058675 -0.2192849
vn -0.5294005 0.07058674 0.2192849
vn -0.5294006 0.07058675 0.2192849
vn -0.5294006 0.07058675 0.2192849
vn -0.5294005 0.07058675 0.2192849
vn -0.2192849 0.07058675 0.5294005
vn -0.2192849 0.07058676 0.5294006
vn -0.2192849 0.07058676 0.5294006
vn -0.2192849 0.07058676 0.5294006
vn 0.2192849 0.07058674 0.5294005
vn 0.2192849 0.07058675 0.5294006
vn 0.2192849 0.07058675 0.5294006
vn 0.2192849 0.07058674 0.5294005
vn 0.5294005 0.07058675 0.2192849
vn 0.5294006 0.07058676 0.2192849
vn 0.5294006 0.07058676 0.2192849
vn 0.5294006 0.07058676 0.2192849
vn 0.5294005 0.07058675 -0.2192849
vn 0.5294006 0.07058675 -0.2192849
vn 0.5294006 0.07058675 -0.2192849
vn 0.5294006 0.07058675 -0.2192849
vn 0.2192849 0.07058675 -0.5294005
vn 0.2192849 0.07058675 -0.5294005
vn 0.2192849 0.07058675 -0.5294005
vn 0.2192849 0.07058675 -0.5294005
vn -0.2192848 0.07058675 -0.5294005
vn -0.2192848 0.07058675 -0.5294006
vn -0.2192848 0.07058675 -0.5294006
vn -0.2192849 0.07058676 -0.5294006
vn -0.5294005 0.07058676 -0.2192849
vn -0.5294005 0.07058675 -0.2192849
vn -0.5294005 0.07058675 -0.2192849
vn -0.5294005 0.07058675 -0.219285
vn 0 -0.5773502 0
vn 0 -0.5773502 0
vn 0 -0.5773502 0
vn 0 -0.5773502 0
vn 0 -0.5773502 0
vn 0 -0.5773502 0
vn 0 -0.5773502 0
vn 0 -0.5773502 0
vn 0 -0.5773502 0
vn 0 0.5773502 0
vn 0 0.5773502 0
vn 0 0.5773502 0
vn 0 0.5773502 0
vn 0 0.5773502 0
vn 0 0.5773502 0
vn 0 0.5773502 0
vn 0 0.5773502 0
vn 0 0.5773502 0
vt -0.09567086 0.02823834
vt -0.1186319 0.4816397
vt 0.09567085 0.02823834
vt 0.1186319 0.4816397
vt -0.09567085 0.02823834
vt -0.1186319 0.4816397
vt 0.09567086 0.02823834
vt 0.1186319 0.4816397
vt -0.09567086 0.02823834
vt -0.1186319 0.4816397
vt 0.09567085 0.02823834
vt 0.1186319 0.4816397
vt -0.09567085 0.02823834
vt -0.1186319 0.4816397
vt 0.09567088 0.02823834
vt 0.1186319 0.4816397
vt -0.09567083 0.02823834
vt -0.1186318 0.4816397
vt 0.09567083 0.02823834
vt 0.1186318 0.4816397
vt -0.09567086 0.02823834
vt -0.1186319 0.4816397
vt 0.09567088 0.02823834
vt 0.1186319 0.4816397
vt -0.09567085 0.02823834
vt -0.1186318 0.4816397
vt 0.09567083 0.02823834
vt 0.1186318 0.4816397
vt -0.09567086 0.02823834
vt -0.1186319 0.4816397
vt 0.09567089 0.02823834
vt 0.1186319 0.4816397
vt -0.1186319 0.4116086
vt -0.09567086 0.86501
vt 0.1186319 0.4116086
vt 0.09567085 0.86501
vt -0.1186319 0.4116086
vt -0.09567085 0.86501
vt 0.1186319 0.4116086
vt 0.09567086 0.86501
vt -0.1186319 0.4116086
vt -0.09567086 0.86501
vt 0.1186319 0.4116086
vt 0.09567085 0.86501
vt -0.1186319 0.4116086
vt -0.09567086 0.86501
vt 0.1186319 0.4116086
vt 0.09567087 0.86501
vt -0.1186319 0.4116086
vt -0.09567085 0.86501
vt 0.1186318 0.4116086
vt 0.09567082 0.86501
vt -0.1186319 0.4116086
vt -0.09567086 0.86501
vt 0.1186319 0.4116086
vt 0.09567088 0.86501
vt -0.1186318 0.4116086
vt -0.09567083 0.86501
vt 0.1186318 0.4116086
vt 0.09567084 0.86501
vt -0.1186319 0.4116086
vt -0.09567088 0.86501
vt 0.1186319 0.4116086
vt 0.09567088 0.86501
vt -0.1767767 0.1767767
vt 0 0
vt -0.25 0
vt 1.092785E-08 0.25
vt 0.1767767 0.1767767
vt 0.25 -2.185569E-08
vt 0.1767767 -0.1767767
vt -2.98122E-09 -0.25
vt -0.1767767 -0.1767767
vt 0.25 0
vt 0 0
vt 0.1767767 0.1767767
vt -1.092785E-08 0.25
vt -0.1767767 0.1767767
vt -0.25 -2.185569E-08
vt -0.1767767 -0.1767767
vt 2.98122E-09 -0.25
vt 0.1767767 -0.1767767
usemtl Default_Prototype
f 3/3/3 2/2/2 1/1/1
f 3/3/3 4/4/4 2/2/2
f 7/7/7 6/6/6 5/5/5
f 7/7/7 8/8/8 6/6/6
f 11/11/11 10/10/10 9/9/9
f 11/11/11 12/12/12 10/10/10
f 15/15/15 14/14/14 13/13/13
f 15/15/15 16/16/16 14/14/14
f 19/19/19 18/18/18 17/17/17
f 19/19/19 20/20/20 18/18/18
f 23/23/23 22/22/22 21/21/21
f 23/23/23 24/24/24 22/22/22
f 27/27/27 26/26/26 25/25/25
f 27/27/27 28/28/28 26/26/26
f 31/31/31 30/30/30 29/29/29
f 31/31/31 32/32/32 30/30/30
f 35/35/35 34/34/34 33/33/33
f 35/35/35 36/36/36 34/34/34
f 39/39/39 38/38/38 37/37/37
f 39/39/39 40/40/40 38/38/38
f 43/43/43 42/42/42 41/41/41
f 43/43/43 44/44/44 42/42/42
f 47/47/47 46/46/46 45/45/45
f 47/47/47 48/48/48 46/46/46
f 51/51/51 50/50/50 49/49/49
f 51/51/51 52/52/52 50/50/50
f 55/55/55 54/54/54 53/53/53
f 55/55/55 56/56/56 54/54/54
f 59/59/59 58/58/58 57/57/57
f 59/59/59 60/60/60 58/58/58
f 63/63/63 62/62/62 61/61/61
f 63/63/63 64/64/64 62/62/62
f 67/67/67 66/66/66 65/65/65
f 65/65/65 66/66/66 68/68/68
f 68/68/68 66/66/66 69/69/69
f 69/69/69 66/66/66 70/70/70
f 70/70/70 66/66/66 71/71/71
f 71/71/71 66/66/66 72/72/72
f 72/72/72 66/66/66 73/73/73
f 73/73/73 66/66/66 67/67/67
f 76/76/76 75/75/75 74/74/74
f 77/77/77 75/75/75 76/76/76
f 78/78/78 75/75/75 77/77/77
f 79/79/79 75/75/75 78/78/78
f 80/80/80 75/75/75 79/79/79
f 81/81/81 75/75/75 80/80/80
f 82/82/82 75/75/75 81/81/81
f 74/74/74 75/75/75 82/82/82
