# Export of Main
# from Aaro4130 OBJ Exporter v2.0
v -0.55 0 0
v -0.55 1.343489E-07 0.046
v -0.3889087 -0.3889087 1.135858E-06
v -0.3889087 -0.3889086 0.04600114
v -0.3889087 -0.3889087 1.135858E-06
v -0.3889087 -0.3889086 0.04600114
v 2.404126E-08 -0.55 1.606345E-06
v 2.404126E-08 -0.5499999 0.04600161
v 2.404126E-08 -0.55 1.606345E-06
v 2.404126E-08 -0.5499999 0.04600161
v 0.3889087 -0.3889087 1.135858E-06
v 0.3889087 -0.3889086 0.04600114
v 0.3889087 -0.3889087 1.135858E-06
v 0.3889087 -0.3889086 0.04600114
v 0.55 4.808253E-08 -1.404312E-13
v 0.55 1.824314E-07 0.046
v 0.55 4.808253E-08 -1.404312E-13
v 0.55 1.824314E-07 0.046
v 0.3889088 0.3889087 -1.135857E-06
v 0.3889088 0.3889088 0.04599886
v 0.3889088 0.3889087 -1.135857E-06
v 0.3889088 0.3889088 0.04599886
v -6.558685E-09 0.55 -1.606345E-06
v -6.558685E-09 0.5500001 0.04599839
v -6.558685E-09 0.55 -1.606345E-06
v -6.558685E-09 0.5500001 0.04599839
v -0.3889087 0.3889088 -1.135858E-06
v -0.3889087 0.388909 0.04599886
v -0.3889087 0.3889088 -1.135858E-06
v -0.3889087 0.388909 0.04599886
v -0.55 0 0
v -0.55 1.343489E-07 0.046
v -0.3889087 -0.3889087 1.135858E-06
v 0 0 0
v -0.55 0 0
v 2.404126E-08 -0.55 1.606345E-06
v 0.3889087 -0.3889087 1.135858E-06
v 0.55 4.808253E-08 -1.404312E-13
v 0.3889088 0.3889087 -1.135857E-06
v -6.558685E-09 0.55 -1.606345E-06
v -0.3889087 0.3889088 -1.135858E-06
v -0.55 1.343489E-07 0.046
v 0 1.343489E-07 0.046
v -0.3889087 -0.3889086 0.04600114
v 2.404126E-08 -0.5499999 0.04600161
v 0.3889087 -0.3889086 0.04600114
v 0.55 1.824314E-07 0.046
v 0.3889088 0.3889088 0.04599886
v -6.558685E-09 0.5500001 0.04599839
v -0.3889087 0.388909 0.04599886
vn -0.5334021 -0.2209424 6.452905E-07
vn -0.5334021 -0.2209424 6.452905E-07
vn -0.5334021 -0.2209424 6.452905E-07
vn -0.5334021 -0.2209424 6.452905E-07
vn -0.2209424 -0.5334021 1.557869E-06
vn -0.2209424 -0.5334021 1.557869E-06
vn -0.2209424 -0.5334021 1.557869E-06
vn -0.2209424 -0.5334021 1.557869E-06
vn 0.2209424 -0.5334021 1.557869E-06
vn 0.2209424 -0.5334021 1.557869E-06
vn 0.2209424 -0.5334021 1.557869E-06
vn 0.2209424 -0.5334021 1.557869E-06
vn 0.5334021 -0.2209423 6.452903E-07
vn 0.5334021 -0.2209423 6.452903E-07
vn 0.5334021 -0.2209423 6.452903E-07
vn 0.5334021 -0.2209423 6.452903E-07
vn 0.5334021 0.2209424 -6.452904E-07
vn 0.5334021 0.2209424 -6.452904E-07
vn 0.5334021 0.2209424 -6.452904E-07
vn 0.5334021 0.2209424 -6.452904E-07
vn 0.2209424 0.533402 -1.557869E-06
vn 0.2209424 0.533402 -1.557869E-06
vn 0.2209424 0.533402 -1.557869E-06
vn 0.2209424 0.533402 -1.557869E-06
vn -0.2209423 0.5334021 -1.557869E-06
vn -0.2209423 0.5334021 -1.557869E-06
vn -0.2209423 0.5334021 -1.557869E-06
vn -0.2209423 0.5334021 -1.557869E-06
vn -0.5334021 0.2209424 -6.452906E-07
vn -0.5334021 0.2209424 -6.452906E-07
vn -0.5334021 0.2209424 -6.452906E-07
vn -0.5334021 0.2209424 -6.452906E-07
vn 0 -1.686225E-06 -0.5773503
vn 0 -1.686225E-06 -0.5773503
vn 0 -1.686225E-06 -0.5773503
vn 0 -1.686225E-06 -0.5773503
vn 0 -1.686225E-06 -0.5773503
vn 0 -1.686225E-06 -0.5773503
vn 0 -1.686225E-06 -0.5773503
vn 0 -1.686225E-06 -0.5773503
vn 0 -1.686225E-06 -0.5773503
vn 0 1.686225E-06 0.5773502
vn 0 1.686225E-06 0.5773502
vn 0 1.686225E-06 0.5773502
vn 0 1.686225E-06 0.5773502
vn 0 1.686225E-06 0.5773503
vn 0 1.686225E-06 0.5773503
vn 0 1.686225E-06 0.5773503
vn 0 1.686225E-06 0.5773503
vn 0 1.686225E-06 0.5773503
vt -0.2104759 0
vt -0.2104759 0.046
vt 0.2104759 0
vt 0.2104759 0.046
vt -0.2104759 0
vt -0.2104759 0.046
vt 0.2104759 0
vt 0.2104759 0.046
vt -0.2104759 0
vt -0.2104759 0.046
vt 0.2104759 0
vt 0.2104759 0.046
vt -0.2104759 0
vt -0.2104759 0.046
vt 0.2104759 0
vt 0.2104759 0.046
vt -0.2104759 0
vt -0.2104759 0.046
vt 0.2104758 0
vt 0.2104758 0.046
vt -0.2104759 0
vt -0.2104759 0.046
vt 0.210476 0
vt 0.210476 0.046
vt -0.2104759 0
vt -0.2104759 0.046
vt 0.2104758 0
vt 0.2104758 0.046
vt -0.2104759 0
vt -0.2104759 0.046
vt 0.210476 0
vt 0.210476 0.046
vt -0.3889087 0.3889087
vt 0 0
vt -0.55 0
vt 2.404126E-08 0.55
vt 0.3889087 0.3889087
vt 0.55 -4.808253E-08
vt 0.3889088 -0.3889087
vt -6.558685E-09 -0.55
vt -0.3889087 -0.3889088
vt 0.55 0
vt 0 0
vt 0.3889087 0.3889087
vt -2.404126E-08 0.55
vt -0.3889087 0.3889087
vt -0.55 -4.808253E-08
vt -0.3889088 -0.3889087
vt 6.558685E-09 -0.55
vt 0.3889087 -0.3889088
usemtl Default_Prototype
f 3/3/3 2/2/2 1/1/1
f 3/3/3 4/4/4 2/2/2
f 7/7/7 6/6/6 5/5/5
f 7/7/7 8/8/8 6/6/6
f 11/11/11 10/10/10 9/9/9
f 11/11/11 12/12/12 10/10/10
f 15/15/15 14/14/14 13/13/13
f 15/15/15 16/16/16 14/14/14
f 19/19/19 18/18/18 17/17/17
f 19/19/19 20/20/20 18/18/18
f 23/23/23 22/22/22 21/21/21
f 23/23/23 24/24/24 22/22/22
f 27/27/27 26/26/26 25/25/25
f 27/27/27 28/28/28 26/26/26
f 31/31/31 30/30/30 29/29/29
f 31/31/31 32/32/32 30/30/30
f 35/35/35 34/34/34 33/33/33
f 33/33/33 34/34/34 36/36/36
f 36/36/36 34/34/34 37/37/37
f 37/37/37 34/34/34 38/38/38
f 38/38/38 34/34/34 39/39/39
f 39/39/39 34/34/34 40/40/40
f 40/40/40 34/34/34 41/41/41
f 41/41/41 34/34/34 35/35/35
f 44/44/44 43/43/43 42/42/42
f 45/45/45 43/43/43 44/44/44
f 46/46/46 43/43/43 45/45/45
f 47/47/47 43/43/43 46/46/46
f 48/48/48 43/43/43 47/47/47
f 49/49/49 43/43/43 48/48/48
f 50/50/50 43/43/43 49/49/49
f 42/42/42 43/43/43 50/50/50
