# Export of Main
# from Aaro4130 OBJ Exporter v2.0
v 0 0 0
v -0.35 0 0
v 0 0.1154877 0
v -0.35 0.1154877 0
v -0.35 0 0
v -0.35 0 -0.22
v -0.35 0.1154877 0
v -0.35 0.1154877 -0.22
v -0.35 0 -0.22
v 0 0 -0.22
v -0.35 0.1154877 -0.22
v 0 0.1154877 -0.22
v 0 0 -0.22
v 0 0 0
v 0 0.1154877 -0.22
v 0 0.1154877 0
v -0.1247914 0.74 -0.07652248
v -0.2252086 0.74 -0.07652248
v -0.1247914 0.74 -0.1434775
v -0.2252086 0.74 -0.1434775
v 0 0 -0.22
v -0.35 0 -0.22
v 0 0 0
v -0.35 0 0
v 0 0.1154877 0
v -0.35 0.1154877 0
v -0.1247914 0.1849657 -0.07652248
v -0.2252086 0.1849657 -0.07652248
v 0 0.1154877 -0.22
v 0 0.1154877 0
v -0.1247914 0.1849657 -0.1434775
v -0.1247914 0.1849657 -0.07652248
v -0.35 0.1154877 0
v -0.35 0.1154877 -0.22
v -0.2252086 0.1849657 -0.07652248
v -0.2252086 0.1849657 -0.1434775
v -0.35 0.1154877 -0.22
v 0 0.1154877 -0.22
v -0.2252086 0.1849657 -0.1434775
v -0.1247914 0.1849657 -0.1434775
v -0.1247914 0.1849657 -0.07652248
v -0.2252086 0.1849657 -0.07652248
v -0.1247914 0.74 -0.07652248
v -0.2252086 0.74 -0.07652248
v -0.1247914 0.1849657 -0.1434775
v -0.1247914 0.1849657 -0.07652248
v -0.1247914 0.74 -0.1434775
v -0.1247914 0.74 -0.07652248
v -0.2252086 0.1849657 -0.07652248
v -0.2252086 0.1849657 -0.1434775
v -0.2252086 0.74 -0.07652248
v -0.2252086 0.74 -0.1434775
v -0.2252086 0.1849657 -0.1434775
v -0.1247914 0.1849657 -0.1434775
v -0.2252086 0.74 -0.1434775
v -0.1247914 0.74 -0.1434775
vn 0 0 0.5773503
vn 0 0 0.5773503
vn 0 0 0.5773503
vn 0 0 0.5773503
vn -0.5773503 0 0
vn -0.5773503 0 0
vn -0.5773503 0 0
vn -0.5773503 0 0
vn 0 0 -0.5773503
vn 0 0 -0.5773503
vn 0 0 -0.5773503
vn 0 0 -0.5773503
vn 0.5773503 0 0
vn 0.5773503 0 0
vn 0.5773503 0 0
vn 0.5773503 0 0
vn 0 0.5773503 0
vn 0 0.5773503 0
vn 0 0.5773503 0
vn 0 0.5773503 0
vn 0 -0.5773503 0
vn 0 -0.5773503 0
vn 0 -0.5773503 0
vn 0 -0.5773503 0
vn 0 0.4274488 0.388099
vn 0 0.4274488 0.388099
vn 0 0.4274488 0.388099
vn 0 0.4274488 0.388099
vn 0.2808477 0.5044382 0
vn 0.2808477 0.5044382 0
vn 0.2808477 0.5044382 0
vn 0.2808477 0.5044382 0
vn -0.2808477 0.5044382 0
vn -0.2808477 0.5044382 0
vn -0.2808477 0.5044382 0
vn -0.2808477 0.5044382 0
vn 0 0.4274488 -0.388099
vn 0 0.4274488 -0.388099
vn 0 0.4274488 -0.388099
vn 0 0.4274488 -0.388099
vn 0 0 0.5773502
vn 0 0 0.5773502
vn 0 0 0.5773502
vn 0 0 0.5773502
vn 0.5773503 0 0
vn 0.5773503 0 0
vn 0.5773503 0 0
vn 0.5773503 0 0
vn -0.5773503 0 0
vn -0.5773503 0 0
vn -0.5773503 0 0
vn -0.5773503 0 0
vn 0 0 -0.5773502
vn 0 0 -0.5773502
vn 0 0 -0.5773502
vn 0 0 -0.5773502
vt 0 0
vt -0.35 0
vt 0 0.1154877
vt -0.35 0.1154877
vt 0 0
vt -0.22 0
vt 0 0.1154877
vt -0.22 0.1154877
vt 0.35 0
vt 0 0
vt 0.35 0.1154877
vt 0 0.1154877
vt 0.22 0
vt 0 0
vt 0.22 0.1154877
vt 0 0.1154877
vt 0.1247914 -0.07652248
vt 0.2252086 -0.07652248
vt 0.1247914 -0.1434775
vt 0.2252086 -0.1434775
vt 0 -0.22
vt -0.35 -0.22
vt 0 0
vt -0.35 0
vt 0 -0.07763167
vt 0.35 -0.07763167
vt 0.1247914 -0.1809897
vt 0.2252086 -0.1809897
vt 0.05617813 -0.22
vt 0.05617813 0
vt 0.199007 -0.1434775
vt 0.199007 -0.07652248
vt 0.2496213 0
vt 0.2496213 -0.22
vt 0.1067924 -0.07652248
vt 0.1067924 -0.1434775
vt 0.35 -0.08524821
vt 0 -0.08524821
vt 0.2252086 0.01810985
vt 0.1247914 0.01810985
vt -0.1247914 0.1849657
vt -0.2252086 0.1849657
vt -0.1247914 0.74
vt -0.2252086 0.74
vt 0.1434775 0.1849657
vt 0.07652248 0.1849657
vt 0.1434775 0.74
vt 0.07652248 0.74
vt -0.07652248 0.1849657
vt -0.1434775 0.1849657
vt -0.07652248 0.74
vt -0.1434775 0.74
vt 0.2252086 0.1849657
vt 0.1247914 0.1849657
vt 0.2252086 0.74
vt 0.1247914 0.74
usemtl Default_Prototype
f 3/3/3 2/2/2 1/1/1
f 3/3/3 4/4/4 2/2/2
f 7/7/7 6/6/6 5/5/5
f 7/7/7 8/8/8 6/6/6
f 11/11/11 10/10/10 9/9/9
f 11/11/11 12/12/12 10/10/10
f 15/15/15 14/14/14 13/13/13
f 15/15/15 16/16/16 14/14/14
f 19/19/19 18/18/18 17/17/17
f 19/19/19 20/20/20 18/18/18
f 23/23/23 22/22/22 21/21/21
f 23/23/23 24/24/24 22/22/22
f 27/27/27 26/26/26 25/25/25
f 27/27/27 28/28/28 26/26/26
f 31/31/31 30/30/30 29/29/29
f 31/31/31 32/32/32 30/30/30
f 35/35/35 34/34/34 33/33/33
f 35/35/35 36/36/36 34/34/34
f 39/39/39 38/38/38 37/37/37
f 39/39/39 40/40/40 38/38/38
f 43/43/43 42/42/42 41/41/41
f 43/43/43 44/44/44 42/42/42
f 47/47/47 46/46/46 45/45/45
f 47/47/47 48/48/48 46/46/46
f 51/51/51 50/50/50 49/49/49
f 51/51/51 52/52/52 50/50/50
f 55/55/55 54/54/54 53/53/53
f 55/55/55 56/56/56 54/54/54
