# Export of Main
# from Aaro4130 OBJ Exporter v2.0
v -25 0 0
v -25 12 0
v -17.67767 0 17.67767
v -17.67767 12 17.67767
v -17.67767 0 17.67767
v -17.67767 12 17.67767
v 1.092785E-06 0 25
v 1.092785E-06 12 25
v 1.092785E-06 0 25
v 1.092785E-06 12 25
v 17.67767 0 17.67767
v 17.67767 12 17.67767
v 17.67767 0 17.67767
v 17.67767 12 17.67767
v 25 0 -2.185569E-06
v 25 12 -2.185569E-06
v 25 0 -2.185569E-06
v 25 12 -2.185569E-06
v 17.67767 0 -17.67767
v 17.67767 12 -17.67767
v 17.67767 0 -17.67767
v 17.67767 12 -17.67767
v -2.98122E-07 0 -25
v -2.98122E-07 12 -25
v -2.98122E-07 0 -25
v -2.98122E-07 12 -25
v -17.67767 0 -17.67767
v -17.67767 12 -17.67767
v -17.67767 0 -17.67767
v -17.67767 12 -17.67767
v -25 0 0
v -25 12 0
v -17.67767 0 17.67767
v 0 0 0
v -25 0 0
v 1.092785E-06 0 25
v 17.67767 0 17.67767
v 25 0 -2.185569E-06
v 17.67767 0 -17.67767
v -2.98122E-07 0 -25
v -17.67767 0 -17.67767
v -25 12 0
v 0 12 0
v -17.67767 12 17.67767
v 1.092785E-06 12 25
v 17.67767 12 17.67767
v 25 12 -2.185569E-06
v 17.67767 12 -17.67767
v -2.98122E-07 12 -25
v -17.67767 12 -17.67767
vn -0.5334021 0 -5.161914E-08
vn -0.5334021 0 -5.161914E-08
vn -0.3771722 0 0.3771722
vn -0.3771722 0 0.3771722
vn -0.3771722 0 0.3771722
vn -0.3771722 0 0.3771722
vn 2.580957E-08 0 0.5334021
vn 2.580957E-08 0 0.5334021
vn 2.580957E-08 0 0.5334021
vn 2.580957E-08 0 0.5334021
vn 0.3771723 0 0.3771722
vn 0.3771723 0 0.3771722
vn 0.3771723 0 0.3771722
vn 0.3771723 0 0.3771722
vn 0.5334021 0 -8.603189E-09
vn 0.5334021 0 -8.603189E-09
vn 0.5334021 0 -8.603189E-09
vn 0.5334021 0 -8.603189E-09
vn 0.3771723 0 -0.3771722
vn 0.3771723 0 -0.3771722
vn 0.3771723 0 -0.3771722
vn 0.3771723 0 -0.3771722
vn 1.720638E-08 0 -0.5334021
vn 1.720638E-08 0 -0.5334021
vn 1.720638E-08 0 -0.5334021
vn 1.720638E-08 0 -0.5334021
vn -0.3771722 0 -0.3771723
vn -0.3771722 0 -0.3771723
vn -0.3771722 0 -0.3771723
vn -0.3771722 0 -0.3771723
vn -0.5334021 0 -5.161914E-08
vn -0.5334021 0 -5.161914E-08
vn 0 -0.5773503 0
vn 0 -0.5773503 0
vn 0 -0.5773503 0
vn 0 -0.5773503 0
vn 0 -0.5773503 0
vn 0 -0.5773503 0
vn 0 -0.5773503 0
vn 0 -0.5773503 0
vn 0 -0.5773503 0
vn 0 0.5773503 0
vn 0 0.5773503 0
vn 0 0.5773503 0
vn 0 0.5773503 0
vn 0 0.5773503 0
vn 0 0.5773503 0
vn 0 0.5773503 0
vn 0 0.5773503 0
vn 0 0.5773503 0
vt -9.567086 0
vt -9.567086 12
vt 9.567086 0
vt 9.567086 12
vt -9.567086 0
vt -9.567086 12
vt 9.567086 0
vt 9.567086 12
vt -9.567086 0
vt -9.567086 12
vt 9.567085 0
vt 9.567085 12
vt -9.567086 0
vt -9.567086 12
vt 9.567088 0
vt 9.567088 12
vt -9.567083 0
vt -9.567083 12
vt 9.567084 0
vt 9.567084 12
vt -9.567086 0
vt -9.567086 12
vt 9.567088 0
vt 9.567088 12
vt -9.567085 0
vt -9.567085 12
vt 9.567082 0
vt 9.567082 12
vt -9.567085 0
vt -9.567085 12
vt 9.56709 0
vt 9.56709 12
vt -17.67767 17.67767
vt 0 0
vt -25 0
vt 1.092785E-06 25
vt 17.67767 17.67767
vt 25 -2.185569E-06
vt 17.67767 -17.67767
vt -2.98122E-07 -25
vt -17.67767 -17.67767
vt 25 0
vt 0 0
vt 17.67767 17.67767
vt -1.092785E-06 25
vt -17.67767 17.67767
vt -25 -2.185569E-06
vt -17.67767 -17.67767
vt 2.98122E-07 -25
vt 17.67767 -17.67767
usemtl Default_Prototype
f 3/3/3 2/2/2 1/1/1
f 3/3/3 4/4/4 2/2/2
f 7/7/7 6/6/6 5/5/5
f 7/7/7 8/8/8 6/6/6
f 11/11/11 10/10/10 9/9/9
f 11/11/11 12/12/12 10/10/10
f 15/15/15 14/14/14 13/13/13
f 15/15/15 16/16/16 14/14/14
f 19/19/19 18/18/18 17/17/17
f 19/19/19 20/20/20 18/18/18
f 23/23/23 22/22/22 21/21/21
f 23/23/23 24/24/24 22/22/22
f 27/27/27 26/26/26 25/25/25
f 27/27/27 28/28/28 26/26/26
f 31/31/31 30/30/30 29/29/29
f 31/31/31 32/32/32 30/30/30
f 35/35/35 34/34/34 33/33/33
f 33/33/33 34/34/34 36/36/36
f 36/36/36 34/34/34 37/37/37
f 37/37/37 34/34/34 38/38/38
f 38/38/38 34/34/34 39/39/39
f 39/39/39 34/34/34 40/40/40
f 40/40/40 34/34/34 41/41/41
f 41/41/41 34/34/34 35/35/35
f 44/44/44 43/43/43 42/42/42
f 45/45/45 43/43/43 44/44/44
f 46/46/46 43/43/43 45/45/45
f 47/47/47 43/43/43 46/46/46
f 48/48/48 43/43/43 47/47/47
f 49/49/49 43/43/43 48/48/48
f 50/50/50 43/43/43 49/49/49
f 42/42/42 43/43/43 50/50/50
