# Export of Main
# from Aaro4130 OBJ Exporter v2.0
v 38.01556 -19 -28
v 49.07076 -7.839402 -28.29718
v 42.99019 -19 -15.99019
v 50.8074 -7.118338 -24.06648
v 42.99019 -19 -15.99019
v 50.8074 -7.118338 -24.06648
v 55 -19 -11.01556
v 55 -7.499524 -22.13999
v 55 -19 -11.01556
v 55 -7.499524 -22.13999
v 67.00981 -19 -15.99019
v 59.1926 -8.75967 -23.64621
v 67.00981 -19 -15.99019
v 59.1926 -8.75967 -23.64621
v 71.98444 -19 -28
v 59.1926 -8.75967 -23.64621
v 60.92924 -10.1606 -27.70283
v 71.98444 -19 -28
v 71.98444 -19 -28
v 60.92924 -10.1606 -27.70283
v 67.00981 -19 -40.00981
v 59.1926 -10.88166 -31.93352
v 67.00981 -19 -40.00981
v 59.1926 -10.88166 -31.93352
v 55 -19 -44.98444
v 55 -10.50048 -33.86001
v 55 -19 -44.98444
v 55 -10.50048 -33.86001
v 42.99019 -19 -40.00981
v 50.8074 -9.240331 -32.35379
v 42.99019 -19 -40.00981
v 50.8074 -9.240331 -32.35379
v 38.01556 -19 -28
v 49.07076 -7.839402 -28.29718
v 49.07076 -7.839402 -28.29718
v 48.26159 3.207249 -28
v 50.8074 -7.118338 -24.06648
v 50.23523 2.56076 -22.92543
v 50.8074 -7.118338 -24.06648
v 50.23523 2.56076 -22.92543
v 55 -7.499524 -22.13999
v 55 1 -20.82347
v 55 -7.499524 -22.13999
v 55 1 -20.82347
v 59.1926 -8.75967 -23.64621
v 62.83561 4.114437 -22.92543
v 59.1926 -8.75967 -23.64621
v 62.83561 4.114437 -22.92543
v 60.92924 -10.1606 -27.70283
v 64.80924 3.467949 -28
v 60.92924 -10.1606 -27.70283
v 64.80924 3.467949 -28
v 59.1926 -10.88166 -31.93352
v 62.83561 4.114437 -33.07457
v 59.1926 -10.88166 -31.93352
v 62.83561 4.114437 -33.07457
v 55 -10.50048 -33.86001
v 55 1 -35.17653
v 55 -10.50048 -33.86001
v 55 1 -35.17653
v 50.8074 -9.240331 -32.35379
v 50.23523 2.56076 -33.07457
v 50.8074 -9.240331 -32.35379
v 50.23523 2.56076 -33.07457
v 49.07076 -7.839402 -28.29718
v 48.26159 3.207249 -28
v 48.26159 3.207249 -28
v 42.77121 11.01158 -28.00094
v 50.23523 2.56076 -22.92543
v 46.35294 12.40706 -23.45461
v 50.23523 2.56076 -22.92543
v 46.35294 12.40706 -23.45461
v 55 1 -20.82347
v 55 12.98509 -21.57146
v 55 1 -20.82347
v 55 12.98509 -21.57146
v 62.83561 4.114437 -22.92543
v 60.77705 13.91645 -23.45461
v 62.83561 4.114437 -22.92543
v 60.77705 13.91645 -23.45461
v 64.80924 3.467949 -28
v 64.35878 12.52097 -28.00094
v 64.80924 3.467949 -28
v 64.35878 12.52097 -28.00094
v 62.83561 4.114437 -33.07457
v 64.35878 12.52097 -28.00094
v 60.77705 11.14864 -32.47183
v 62.83561 4.114437 -33.07457
v 62.83561 4.114437 -33.07457
v 60.77705 11.14864 -32.47183
v 55 1 -35.17653
v 55 9.014908 -34.50587
v 55 1 -35.17653
v 55 9.014908 -34.50587
v 50.23523 2.56076 -33.07457
v 46.35294 9.616095 -32.54727
v 50.23523 2.56076 -33.07457
v 46.35294 9.616095 -32.54727
v 48.26159 3.207249 -28
v 42.77121 11.01158 -28.00094
v 42.77121 11.01158 -28.00094
v 38.26796 15.94986 -28
v 46.35294 12.40706 -23.45461
v 43.16866 17.42901 -18.34569
v 46.35294 12.40706 -23.45461
v 43.16866 17.42901 -18.34569
v 55 12.98509 -21.57146
v 55 21 -14.34674
v 55 12.98509 -21.57146
v 55 21 -14.34674
v 60.77705 13.91645 -23.45461
v 66.83134 24.57099 -18.34569
v 60.77705 13.91645 -23.45461
v 66.83134 24.57099 -18.34569
v 64.35878 12.52097 -28.00094
v 71.73205 26.05014 -28
v 64.35878 12.52097 -28.00094
v 71.73205 26.05014 -28
v 60.77705 11.14864 -32.47183
v 66.83134 24.57099 -37.65431
v 60.77705 11.14864 -32.47183
v 66.83134 24.57099 -37.65431
v 55 9.014908 -34.50587
v 55 21 -41.65326
v 55 9.014908 -34.50587
v 55 21 -41.65326
v 46.35294 9.616095 -32.54727
v 43.16866 17.42901 -37.65431
v 46.35294 9.616095 -32.54727
v 43.16866 17.42901 -37.65431
v 42.77121 11.01158 -28.00094
v 38.26796 15.94986 -28
v 42.99019 -19 -15.99019
v 55 -19 -28
v 38.01556 -19 -28
v 55 -19 -11.01556
v 67.00981 -19 -15.99019
v 71.98444 -19 -28
v 67.00981 -19 -40.00981
v 55 -19 -44.98444
v 42.99019 -19 -40.00981
v 38.26796 15.94986 -28
v 55 21 -28
v 43.16866 17.42901 -18.34569
v 55 21 -14.34674
v 66.83134 24.57099 -18.34569
v 71.73205 26.05014 -28
v 66.83134 24.57099 -37.65431
v 55 21 -41.65326
v 43.16866 17.42901 -37.65431
vn -0.3915029 0.3921237 0.1621659
vn -0.4035021 0.3848666 0.1496564
vn -0.4035021 0.3848666 0.1496564
vn -0.4331653 0.3637134 0.1158178
vn -0.1658841 0.3813555 0.4004794
vn -0.1616295 0.3830214 0.4006293
vn -0.1616295 0.3830214 0.4006293
vn -0.1489648 0.387816 0.4009258
vn 0.1647428 0.384719 0.3977241
vn 0.1827447 0.3941625 0.3802283
vn 0.1827447 0.3941625 0.3802283
vn 0.2396647 0.4193869 0.3162416
vn 0.3788027 0.4064759 0.1569052
vn 0.3773285 0.4198982 0.1210041
vn 0.3773285 0.4198982 0.1210041
vn 0.3773285 0.4198982 0.1210041
vn 0.3605257 0.4509463 -0.001390829
vn 0.3773285 0.4198982 0.1210041
vn 0.3468473 0.4386224 -0.1436688
vn 0.3313096 0.4461019 -0.1567176
vn 0.3313096 0.4461019 -0.1567176
vn 0.281539 0.4648887 -0.1948016
vn 0.1355227 0.4559821 -0.3271808
vn 0.1505008 0.4503215 -0.3284713
vn 0.1505008 0.4503215 -0.3284713
vn 0.1913171 0.4328494 -0.3307151
vn -0.1408057 0.444917 -0.3399352
vn -0.1143663 0.4288037 -0.3692981
vn -0.1143663 0.4288037 -0.3692981
vn -0.04335121 0.3764348 -0.4356039
vn -0.369669 0.4162112 -0.153122
vn -0.3701055 0.4005434 -0.1895262
vn -0.3701055 0.4005434 -0.1895262
vn -0.3634242 0.3526069 -0.2773527
vn -0.5297625 -0.04486112 0.2251055
vn -0.5341045 -0.05040359 0.2133665
vn -0.5341045 -0.05040359 0.2133665
vn -0.5379415 -0.05562908 0.2021328
vn -0.2446433 -0.07546698 0.5174821
vn -0.2485547 -0.07748871 0.5153148
vn -0.2485547 -0.07748871 0.5153148
vn -0.2524026 -0.07948125 0.5131364
vn 0.1704578 -0.0844342 0.5451131
vn 0.1757468 -0.08179244 0.5438349
vn 0.1757468 -0.08179244 0.5438349
vn 0.1778397 -0.08074195 0.5433112
vn 0.4905035 -0.1535232 0.2630025
vn 0.504938 -0.1471377 0.2381625
vn 0.504938 -0.1471377 0.2381625
vn 0.5152317 -0.1419211 0.2184674
vn 0.523645 -0.1531977 -0.1888375
vn 0.5190787 -0.1467621 -0.2057948
vn 0.5190787 -0.1467621 -0.2057948
vn 0.5152668 -0.1417968 -0.2184652
vn 0.2305307 -0.09561683 -0.5206211
vn 0.1973643 -0.07695028 -0.5370841
vn 0.1973643 -0.07695028 -0.5370841
vn 0.1718183 -0.06268816 -0.5476149
vn -0.2102955 -0.06115249 -0.5341999
vn -0.2287999 -0.05174275 -0.5275477
vn -0.2287999 -0.05174275 -0.5275477
vn -0.2442776 -0.04368364 -0.5212998
vn -0.5343003 -0.03905225 -0.2152475
vn -0.5366161 -0.03633471 -0.209896
vn -0.5366161 -0.03633471 -0.209896
vn -0.5386034 -0.03393395 -0.205154
vn -0.4586694 -0.3226596 0.1372827
vn -0.4503253 -0.2307781 0.2779962
vn -0.4503253 -0.2307781 0.2779962
vn -0.4167423 -0.1442912 0.3726113
vn -0.250593 -0.07111455 0.5152467
vn -0.1642282 0.00317519 0.553491
vn -0.1642282 0.00317519 0.553491
vn -0.1248678 0.03511107 0.5625909
vn 0.1363172 0.03494547 0.5599372
vn 0.1488671 0.04665126 0.5558737
vn 0.1488671 0.04665126 0.5558737
vn 0.1683044 0.06495509 0.5484412
vn 0.5310393 0.1218381 0.1910131
vn 0.5025069 0.07458128 0.2743315
vn 0.5025069 0.07458128 0.2743315
vn 0.4565369 0.02275318 0.3526892
vn 0.5386516 0.02678093 -0.2060838
vn 0.4903298 0.0873976 -0.292013
vn 0.4903298 0.0873976 -0.292013
vn 0.4903298 0.0873976 -0.292013
vn 0.41083 0.1524411 -0.3759172
vn 0.4903298 0.0873976 -0.292013
vn 0.117335 0.08226192 -0.5592842
vn 0.1430766 0.06656454 -0.5553662
vn 0.1430766 0.06656454 -0.5553662
vn 0.1759954 0.04585101 -0.5479568
vn -0.2200677 0.04450783 -0.5319047
vn -0.1671707 0.0008632216 -0.5526179
vn -0.1671707 0.0008632216 -0.5526179
vn -0.1293061 -0.02915499 -0.5619282
vn -0.4913833 -0.2585685 -0.158171
vn -0.4596275 -0.2826318 -0.2054146
vn -0.4596275 -0.2826318 -0.2054146
vn -0.4277196 -0.3009323 -0.2445997
vn -0.3348923 -0.305458 0.3575974
vn -0.3250499 -0.3911074 0.273333
vn -0.3250499 -0.3911074 0.273333
vn -0.3144656 -0.4285882 0.2252929
vn -0.05531348 -0.426704 0.3849643
vn -0.0376853 -0.4007645 0.4138852
vn -0.0376853 -0.4007645 0.4138852
vn -0.028239 -0.3860981 0.4283271
vn 0.1907594 -0.3648513 0.4047564
vn 0.2236869 -0.3419816 0.4078554
vn 0.2236869 -0.3419816 0.4078554
vn 0.2380727 -0.3312089 0.4086018
vn 0.3084487 -0.3421537 0.3480282
vn 0.4285215 -0.2916501 0.2542495
vn 0.4285215 -0.2916501 0.2542495
vn 0.4750735 -0.2589245 0.2014858
vn 0.4429719 -0.2413959 -0.2807797
vn 0.4592299 -0.2712841 -0.2210114
vn 0.4592299 -0.2712841 -0.2210114
vn 0.4645441 -0.2837979 -0.19233
vn 0.2568803 -0.2829602 -0.4327579
vn 0.241935 -0.2744064 -0.4466564
vn 0.241935 -0.2744064 -0.4466564
vn 0.2346792 -0.2701832 -0.4530564
vn -0.1294908 -0.2881811 -0.4832361
vn -0.0938632 -0.3106607 -0.4775071
vn -0.0938632 -0.3106607 -0.4775071
vn -0.05882129 -0.3308547 -0.4694769
vn -0.4193971 -0.3222545 -0.2314982
vn -0.4007809 -0.3382878 -0.2413905
vn -0.4007809 -0.3382878 -0.2413905
vn -0.3848695 -0.3509168 -0.249131
vn 0 -0.5773503 0
vn 0 -0.5773503 0
vn 0 -0.5773503 0
vn 0 -0.5773503 0
vn 0 -0.5773503 0
vn 0 -0.5773503 0
vn 0 -0.5773502 0
vn 0 -0.5773503 0
vn 0 -0.5773503 0
vn -0.1668252 0.552723 1.174735E-07
vn -0.1668252 0.552723 1.174735E-07
vn -0.1668252 0.552723 1.174735E-07
vn -0.1668253 0.5527229 0
vn -0.1668253 0.5527229 0
vn -0.1668252 0.5527229 -1.174734E-07
vn -0.1668252 0.552723 1.174735E-07
vn -0.1668252 0.5527229 0
vn -0.1668253 0.5527229 0
vt 12.01932 -3.370638
vt -3.689556 -3.680279
vt 8.498941 9.14293
vt -5.427981 0.5814189
vt -6.49966 -10.36471
vt -2.368166 5.460581
vt 6.499665 -10.36471
vt 2.24253 5.058525
vt -6.499663 -10.45613
vt -2.242529 4.967578
vt 6.499662 -10.45613
vt 2.207339 3.886119
vt -8.786031 9.332595
vt 3.91431 1.377155
vt -12.42532 -3.146908
vt 3.91431 1.377155
vt 1.688736 -2.570018
vt -12.42532 -3.146908
vt -13.32242 2.621522
vt 0.8319654 2.928349
vt -9.420374 -9.778334
vt 1.746909 -1.578057
vt -11.51211 -7.956269
vt -1.705995 1.845903
vt -1.254745E-09 -13.99396
vt 2.421463 -0.2112094
vt -1.247984E-09 -13.72835
vt -2.564535 0.03457232
vt 11.45008 -7.57384
vt 1.05245 2.704238
vt 8.979417 -9.464561
vt -3.346369 -1.524186
vt 12.69882 2.991305
vt -2.97824 2.970809
vt -2.592294 11.54185
vt -2.635234 22.622
vt 1.980618 12.2651
vt 2.807032 21.99052
vt -2.109179 12.47878
vt -2.138771 22.24164
vt 2.504578 12.0943
vt 3.06726 20.67647
vt -1.748923 12.19477
vt -2.141838 20.78666
vt 2.702138 10.92092
vt 5.963995 23.91623
vt -1.855819 11.40126
vt -0.7695607 24.75617
vt 2.539939 9.948011
vt 4.635322 23.95783
vt -2.290968 9.975794
vt -3.327656 24.11105
vt 2.277981 9.227919
vt 2.115527 24.69851
vt -2.240976 8.883018
vt -5.110035 24.0891
vt 2.372613 9.269544
vt 2.905647 20.81057
vt -2.146541 9.02926
vt -2.628784 20.5948
vt 2.306392 10.29653
vt 2.574769 22.12448
vt -2.471726 10.11041
vt -2.926491 21.93859
vt 1.939963 11.51455
vt 2.517978 22.57916
vt -1.932161 22.0233
vt -3.507365 31.4345
vt 3.495242 21.24371
vt 1.875079 31.40261
vt -2.065407 22.21537
vt -5.788126 32.13723
vt 3.1388 20.64263
vt 2.811654 32.45361
vt -1.69755 19.54128
vt -1.52062 31.54839
vt 6.412896 22.66144
vt 4.537925 32.50608
vt -2.122968 20.67548
vt -2.321775 30.70333
vt 3.320103 20.0141
vt 3.168523 28.95276
vt -3.505159 22.0188
vt -3.343314 31.08157
vt 1.939619 22.66598
vt -3.343314 31.08157
vt 2.11226 29.79179
vt 1.939619 22.66598
vt -6.626726 21.94175
vt -4.735782 29.04846
vt 1.473521 18.79521
vt 1.335818 26.82187
vt -2.74363 19.42927
vt -2.487234 27.4681
vt 2.462781 20.99469
vt 6.251742 27.95217
vt -3.370533 22.00527
vt -1.679036 29.8962
vt 2.064694 22.72832
vt 3.746088 32.04697
vt -8.926427 29.88935
vt -12.2127 35.70882
vt -3.204458 31.53384
vt -2.036427 38.91985
vt -12.61282 23.41405
vt -16.41627 30.2693
vt -4.111813 25.9409
vt -5.142162 36.62499
vt -2.740615 28.46377
vt -5.820655 38.80536
vt 3.287968 29.66549
vt 6.586483 42.47446
vt 1.308602 30.80016
vt 2.450918 44.02777
vt 7.004546 29.06766
vt 12.52193 42.86374
vt -5.009578 31.93874
vt -8.957768 46.83221
vt 0.6841602 30.42803
vt 1.820125 45.91894
vt -2.685189 29.60938
vt -5.246044 45.00789
vt 3.320832 27.1615
vt 6.969121 40.62073
vt -1.683941 27.41215
vt -3.53393 41.24346
vt 7.175395 28.10595
vt 8.929282 37.74966
vt 0.1976133 29.19572
vt -2.734719 38.61191
vt 5.908719 30.87757
vt 8.085727 37.17533
vt -12.00981 12.00981
vt 2.038464E-07 -2.038464E-07
vt -16.98444 -2.038464E-07
vt 9.462597E-07 16.98444
vt 12.00981 12.00981
vt 16.98444 -1.688673E-06
vt 12.00981 -12.00981
vt 1.30899E-09 -16.98444
vt -12.00981 -12.00981
vt 5.919569 -7.908796E-06
vt -11.55799 -7.908796E-06
vt 0.8005105 9.654305
vt -11.558 13.65326
vt -23.9165 9.654312
vt -29.03555 5.867838E-06
vt -23.91649 -9.654319
vt -11.55799 -13.65326
vt 0.8005033 -9.654314
usemtl Default_Prototype
f 3/3/3 2/2/2 1/1/1
f 3/3/3 4/4/4 2/2/2
f 7/7/7 6/6/6 5/5/5
f 7/7/7 8/8/8 6/6/6
f 11/11/11 10/10/10 9/9/9
f 11/11/11 12/12/12 10/10/10
f 15/15/15 14/14/14 13/13/13
f 18/18/18 17/17/17 16/16/16
f 21/21/21 20/20/20 19/19/19
f 21/21/21 22/22/22 20/20/20
f 25/25/25 24/24/24 23/23/23
f 25/25/25 26/26/26 24/24/24
f 29/29/29 28/28/28 27/27/27
f 29/29/29 30/30/30 28/28/28
f 33/33/33 32/32/32 31/31/31
f 33/33/33 34/34/34 32/32/32
f 37/37/37 36/36/36 35/35/35
f 37/37/37 38/38/38 36/36/36
f 41/41/41 40/40/40 39/39/39
f 41/41/41 42/42/42 40/40/40
f 45/45/45 44/44/44 43/43/43
f 45/45/45 46/46/46 44/44/44
f 49/49/49 48/48/48 47/47/47
f 49/49/49 50/50/50 48/48/48
f 53/53/53 52/52/52 51/51/51
f 53/53/53 54/54/54 52/52/52
f 57/57/57 56/56/56 55/55/55
f 57/57/57 58/58/58 56/56/56
f 61/61/61 60/60/60 59/59/59
f 61/61/61 62/62/62 60/60/60
f 65/65/65 64/64/64 63/63/63
f 65/65/65 66/66/66 64/64/64
f 69/69/69 68/68/68 67/67/67
f 69/69/69 70/70/70 68/68/68
f 73/73/73 72/72/72 71/71/71
f 73/73/73 74/74/74 72/72/72
f 77/77/77 76/76/76 75/75/75
f 77/77/77 78/78/78 76/76/76
f 81/81/81 80/80/80 79/79/79
f 81/81/81 82/82/82 80/80/80
f 85/85/85 84/84/84 83/83/83
f 88/88/88 87/87/87 86/86/86
f 91/91/91 90/90/90 89/89/89
f 91/91/91 92/92/92 90/90/90
f 95/95/95 94/94/94 93/93/93
f 95/95/95 96/96/96 94/94/94
f 99/99/99 98/98/98 97/97/97
f 99/99/99 100/100/100 98/98/98
f 103/103/103 102/102/102 101/101/101
f 103/103/103 104/104/104 102/102/102
f 107/107/107 106/106/106 105/105/105
f 107/107/107 108/108/108 106/106/106
f 111/111/111 110/110/110 109/109/109
f 111/111/111 112/112/112 110/110/110
f 115/115/115 114/114/114 113/113/113
f 115/115/115 116/116/116 114/114/114
f 119/119/119 118/118/118 117/117/117
f 119/119/119 120/120/120 118/118/118
f 123/123/123 122/122/122 121/121/121
f 123/123/123 124/124/124 122/122/122
f 127/127/127 126/126/126 125/125/125
f 127/127/127 128/128/128 126/126/126
f 131/131/131 130/130/130 129/129/129
f 131/131/131 132/132/132 130/130/130
f 135/135/135 134/134/134 133/133/133
f 133/133/133 134/134/134 136/136/136
f 136/136/136 134/134/134 137/137/137
f 137/137/137 134/134/134 138/138/138
f 138/138/138 134/134/134 139/139/139
f 139/139/139 134/134/134 140/140/140
f 140/140/140 134/134/134 141/141/141
f 141/141/141 134/134/134 135/135/135
f 144/144/144 143/143/143 142/142/142
f 145/145/145 143/143/143 144/144/144
f 146/146/146 143/143/143 145/145/145
f 147/147/147 143/143/143 146/146/146
f 148/148/148 143/143/143 147/147/147
f 149/149/149 143/143/143 148/148/148
f 150/150/150 143/143/143 149/149/149
f 142/142/142 143/143/143 150/150/150
